<svg width="13" height="13" viewBox="0 0 13 13" fill="none" xmlns="http://www.w3.org/2000/svg">
<path d="M12.7182 1.8584H11.251H1.46727H0V2.7871H1.46727V10.6791C1.46727 11.9586 2.56489 13.0002 3.91319 13.0002H8.80503C10.1533 13.0002 11.251 11.9586 11.251 10.6791V2.78576H12.7182V1.8584ZM10.2723 10.6777C10.2723 11.4452 9.61373 12.0701 8.80503 12.0701H3.91319C3.10449 12.0701 2.44592 11.4452 2.44592 10.6777V2.78576H10.2723V10.6777Z" fill="#dbc85d"/>
<path d="M10.2727 0H2.44629V0.928706H10.2727V0Z" fill="#dbc85d"/>
<path d="M5.38051 4.17773H4.40186V10.2123H5.38051V4.17773Z" fill="#dbc85d"/>
<path d="M8.31605 4.17773H7.3374V10.2123H8.31605V4.17773Z" fill="#dbc85d"/>
</svg>
